PathFileType	4	(X/Y/Z)	C:\Users\preethimanoharan\Documents\OpenSim\4.3\Models\Opensim Spine models\FBLS model Full body musculoskeletal model of lumar spine\Ha Pilot data\test_data_markers.trc
DataRate	CameraRate	NumFrames	NumMarkers	Units	OrigDataRate	OrigDataStartFrame	OrigNumFrames
100.000000	100.000000	4	41	mm	100.000000	231	1854
Frame#	Time	RFHD			LFHD			LBHD			RBHD			LSHO			LUPA			LELB			LFRM			LWRA			LWRB			LFIN			RSHO			RUPA			RELB			RFRM			RWRA			RWRB			RFIN			LTHI			LKNE			LTIB			LANK			LHEE			LTOE			LMT5			RTHI			RKNE			RTIB			RANK			RHEE			RTOE			RMT5			CLAV			STRN			LASI			RASI			C7			LPSI			RPSI			RBAK			T10			
		X1	Y1	Z1	X2	Y2	Z2	X3	Y3	Z3	X4	Y4	Z4	X5	Y5	Z5	X6	Y6	Z6	X7	Y7	Z7	X8	Y8	Z8	X9	Y9	Z9	X10	Y10	Z10	X11	Y11	Z11	X12	Y12	Z12	X13	Y13	Z13	X14	Y14	Z14	X15	Y15	Z15	X16	Y16	Z16	X17	Y17	Z17	X18	Y18	Z18	X19	Y19	Z19	X20	Y20	Z20	X21	Y21	Z21	X22	Y22	Z22	X23	Y23	Z23	X24	Y24	Z24	X25	Y25	Z25	X26	Y26	Z26	X27	Y27	Z27	X28	Y28	Z28	X29	Y29	Z29	X30	Y30	Z30	X31	Y31	Z31	X32	Y32	Z32	X33	Y33	Z33	X34	Y34	Z34	X35	Y35	Z35	X36	Y36	Z36	X37	Y37	Z37	X38	Y38	Z38	X39	Y39	Z39	X40	Y40	Z40	X41	Y41	Z41	

232	2.31	1037.15185546875	1670.831787109375	-774.1444091796874	945.7535400390625	1686.850463867188	-681.4374999999999	1059.60302734375	1683.314086914062	-574.7408447265624	1135.429443359375	1675.195678710938	-677.3609008789061	923.8949584960938	1471.944946289062	-569.5252075195311	757.9620971679688	1464.819213867188	-611.6459350585936	603.1423950195312	1449.626708984375	-596.9222412109374	508.0744018554688	1480.749755859375	-612.9782714843749	377.3255004882812	1494.946899414062	-697.3367919921874	369.2940673828125	1487.3525390625	-632.5754394531249	295.6895446777344	1493.14111328125	-670.9851074218749	1170.298095703125	1469.446044921875	-597.0384521484374	1339.61865234375	1397.5205078125	-599.1992797851561	1465.69580078125	1405.035888671875	-616.9235229492186	1613.577026367188	1397.48291015625	-642.5460815429686	1706.376342773438	1408.140869140625	-724.1391601562499	1708.204223632812	1378.118041992188	-664.7297973632811	1783.428955078125	1396.304077148438	-692.2371826171874	848.8967895507812	623.2704467773438	-641.8973388671875	862.2474365234375	473.8757629394532	-627.0448608398438	840.4305419921875	261.6428527832032	-580.1033325195312	848.2825317382812	77.68397521972659	-566.6026611328125	893.9609375	40.28017044067386	-521.2732543945312	875.2767333984375	46.92741012573246	-699.8947143554688	820.3435668945312	20.75453567504887	-668.4752197265625	1217.953369140625	616.0825805664062	-651.135986328125	1208.055053710938	476.0071105957032	-636.7688598632812	1235.819702148438	338.3750915527344	-585.3452758789062	1196.4736328125	79.65070343017581	-558.5009155273438	1153.671508789062	49.03625106811526	-517.6795654296875	1171.620361328125	51.46799087524418	-682.7324829101562	1240.1396484375	18.07835197448734	-648.747314453125	1034.424560546875	1408.382690429688	-713.2481689453124	1030.642700195312	1238.162719726562	-744.7032470703124	911.309326171875	960.1056518554688	-719.1892089843749	1157.181640625	966.8588256835938	-711.8302001953124	1055.792114257812	1489.343994140625	-584.3170166015624	966.8536376953125	1002.646545410156	-567.6256713867186	1090.249877929688	998.9691772460938	-563.6156616210936	1124.525756835938	1318.045043945312	-534.8500976562499	1038.169189453125	1111.292236328125	-569.6270141601561	
233	2.32	1040.081176757812	1669.934448242188	-774.9071655273436	945.2884521484375	1686.072875976562	-684.5142822265624	1056.774780273438	1684.465087890625	-575.2440795898436	1135.323608398438	1675.8896484375	-675.0473632812499	923.7503662109375	1471.765014648438	-569.5151977539061	757.8521728515625	1464.577514648438	-611.7194213867186	603.0471801757812	1449.398681640625	-597.1109008789061	508.7132568359375	1480.17041015625	-613.3677978515624	377.3822937011719	1494.71435546875	-697.6326904296874	369.1506042480469	1487.243896484375	-632.4897460937499	295.6307983398438	1492.936645507812	-671.3547363281249	1170.235595703125	1469.46533203125	-596.9936523437499	1339.536376953125	1397.416748046875	-599.2230834960936	1465.621826171875	1405.0009765625	-616.9445800781249	1613.571899414062	1397.474487304688	-642.6082763671874	1706.34228515625	1408.13720703125	-724.1240234374999	1708.174438476562	1378.0419921875	-664.7075195312499	1783.355834960938	1396.162963867188	-692.1646728515624	848.8661499023438	623.2390747070312	-641.825439453125	862.2716064453125	473.8201904296876	-627.0409545898438	840.4627075195312	261.5164489746094	-580.06591796875	848.2965698242188	77.4282150268555	-566.622802734375	893.96435546875	40.21195983886722	-521.3390502929688	875.2299194335938	46.8948135375977	-699.902099609375	820.3652954101562	20.63932800292973	-668.48388671875	1218.011352539062	616.0813598632812	-651.2022705078125	1208.136840820312	476.0407714843751	-636.8028564453125	1235.882202148438	338.4321899414063	-585.3536376953125	1196.501342773438	79.676872253418	-558.552734375	1153.642211914062	48.8481254577637	-517.6847534179688	1171.647705078125	51.49828720092778	-682.7716064453125	1240.206298828125	18.14583587646488	-648.688232421875	1034.370483398438	1408.361450195312	-713.3076782226561	1030.716552734375	1238.26904296875	-744.7609863281249	911.383056640625	960.0833129882812	-719.2083129882811	1157.16748046875	966.8598022460938	-711.9673461914061	1055.502807617188	1489.167358398438	-584.1053466796874	967.1578369140625	1002.553894042969	-567.4378662109374	1090.193481445312	998.7650756835938	-563.5521850585936	1124.848754882812	1318.041625976562	-534.6777954101561	1038.209716796875	1111.130859375	-569.6546020507811	
234	2.33	1051.419311523438	1671.333862304688	-772.4528808593749	944.874755859375	1685.56298828125	-687.8938598632811	1050.908569335938	1685.265747070312	-576.2819824218749	1136.530029296875	1676.903198242188	-673.2476196289061	923.7982177734375	1471.424926757812	-570.2831420898436	757.7528686523438	1464.429321289062	-611.7037963867186	602.892333984375	1449.164428710938	-597.1213378906249	508.5958251953125	1480.039184570312	-613.5725708007811	377.2780151367188	1494.571411132812	-697.9088745117186	369.1158447265625	1487.2177734375	-632.9891967773436	295.5991821289062	1492.7919921875	-671.7597045898436	1170.11181640625	1469.407836914062	-596.8728637695311	1339.451293945312	1397.37744140625	-599.1683959960936	1465.439697265625	1404.973022460938	-616.9121093749999	1613.437133789062	1397.50048828125	-642.5166015624999	1706.273193359375	1408.154052734375	-723.9907836914061	1707.975708007812	1377.938720703125	-664.6191406249999	1783.227416992188	1396.073364257812	-692.0274658203124	848.9389038085938	623.1744995117188	-641.6614990234375	862.3201293945312	473.6820068359376	-626.9362182617188	840.5344848632812	261.3691711425782	-580.0259399414062	848.2232055664062	77.22633361816409	-566.5960083007812	893.9089965820312	40.14114761352542	-521.2807006835938	875.1781005859375	46.73021697998051	-699.8734741210938	820.3491821289062	20.59399223327641	-668.451416015625	1217.935668945312	616.0753784179688	-651.2947387695312	1208.09716796875	476.0278320312501	-636.8345947265625	1235.889404296875	338.4487609863282	-585.3494873046875	1196.422485351562	79.68984222412112	-558.4716796875	1154.0361328125	48.65052413940433	-518.0203247070312	1171.618041992188	51.45868301391606	-682.7471313476562	1240.14990234375	18.15290451049809	-648.6688842773438	1034.386474609375	1408.407470703125	-713.2871704101561	1030.670776367188	1238.287719726562	-744.7827758789061	911.3175048828125	960.0059204101562	-718.9784545898436	1157.139892578125	966.882080078125	-711.9652099609374	1055.185302734375	1488.98486328125	-583.8669433593749	968.071533203125	1003.048522949219	-566.9166870117186	1090.2265625	998.5896606445312	-563.4940795898436	1124.713012695312	1317.999877929688	-534.5827026367186	1038.229736328125	1110.976196289062	-569.5701904296874	
235	2.34	1053.720825195312	1670.033813476562	-772.7775878906249	944.627197265625	1685.128662109375	-691.3098144531249	1041.988037109375	1685.771850585938	-578.2175292968749	1142.389526367188	1679.323974609375	-667.1102905273436	923.4483032226562	1471.539306640625	-569.3245239257811	757.6141967773438	1464.367553710938	-611.8014526367186	602.793701171875	1449.105346679688	-597.2653198242186	508.4793701171875	1480.01318359375	-613.8519287109374	377.1870727539062	1494.563598632812	-698.2403564453124	369.0379943847656	1486.969970703125	-633.5249633789061	295.5362854003906	1492.7958984375	-672.2081298828124	1169.914184570312	1469.367065429688	-596.6614990234374	1339.29052734375	1397.448974609375	-599.1453857421874	1465.363403320312	1405.123413085938	-616.9662475585936	1613.232666015625	1397.5849609375	-642.5122070312499	1706.156982421875	1408.28466796875	-723.9249877929686	1707.897094726562	1378.041137695312	-664.5105590820311	1783.154418945312	1396.133911132812	-691.9023437499999	848.8594970703125	623.3030395507812	-641.4676513671875	862.2033081054688	473.8936462402344	-626.7402954101562	840.4382934570312	261.5062561035157	-579.8936157226562	848.1827392578125	77.3027038574219	-566.57275390625	893.884521484375	40.11952972412112	-521.2904663085938	875.1522216796875	46.82554244995121	-699.864501953125	820.2675170898438	20.73212051391606	-668.3948364257812	1217.976196289062	616.0938110351562	-651.3953247070312	1208.117065429688	476.0931396484376	-636.8609008789062	1235.87841796875	338.4819641113282	-585.35888671875	1196.369262695312	79.67451477050784	-558.5250854492188	1153.999389648438	48.67839050292972	-518.0283203125	1171.504028320312	51.44255828857426	-682.7598876953125	1240.166381835938	18.19680023193363	-648.724609375	1034.280517578125	1408.403686523438	-713.1530761718749	1030.639770507812	1238.302856445312	-744.8169555664061	911.4044799804688	960.0752563476562	-719.0778198242186	1157.14453125	966.9132080078125	-712.0435180664061	1054.836547851562	1488.948364257812	-583.6419067382811	968.2125244140625	1003.114318847656	-566.8661499023436	1090.245239257812	998.5570678710938	-563.5025634765624	1124.449829101562	1317.827270507812	-534.8049316406249	1037.96728515625	1110.567993164062	-570.2236938476561	
